<svg role="img" viewBox="0 0 64 64" xmlns="http://www.w3.org/2000/svg" fill="#0c0243"><title>Finnair</title><path d="M9.364 35.422h1.978c.488 0 .829-.197 1.01-.564l3.098-6.28h-1.977c-.489 0-.83.197-1.01.564zm37.928 0h1.978c.488 0 .828-.197 1.01-.564l3.099-6.28h-1.977c-.489 0-.83.197-1.01.564zM6.86 28.578c-.481 0-.756.057-1.106.236-.116.06-1.383.703-2.299 1.174-.725.373-1.23.9-1.548 1.544A885 885 0 0 0 0 35.422h1.977c.489 0 .83-.197 1.01-.564l.974-1.973H7.18c.44 0 .61-.077.78-.421l.166-.345H4.253c.351-.712.876-1.783.876-1.783.22-.448.481-.628 1.068-.628h4.168c.489 0 .83-.198 1.01-.564l.28-.566zm30.317.002h-.91c-.488 0-.828.198-1.01.565l-2.098 4.267a1.3 1.3 0 0 0-.218-.449 940 940 0 0 1-3.14-4.188c-.163-.221-.437-.247-.705-.111l-.566.29c-.685.353-1.083.804-1.413 1.473-.917 1.857-2.431 4.995-2.431 4.995h.903c.488 0 .829-.197 1.01-.564.099-.2 1.207-2.464 1.852-3.775a.7.7 0 0 0 .14.314c1 1.301 2.538 3.299 2.691 3.496.263.338.535.53 1.023.53h1.49zm-11.009 0h-.908c-.489 0-.83.198-1.01.565-.125.251-1.43 2.907-2.099 4.267a1.3 1.3 0 0 0-.218-.449 944 944 0 0 1-3.14-4.188c-.163-.221-.437-.247-.705-.111l-.566.29c-.686.353-1.083.804-1.413 1.473a764 764 0 0 0-2.431 4.995h.902c.489 0 .83-.197 1.01-.564l1.852-3.776c.014.115.08.235.14.314 1 1.302 2.537 3.299 2.69 3.496.264.339.536.53 1.023.53h1.49zm13.7 3.539c.515-1.04.861-1.748.861-1.748.242-.49.472-.664 1.097-.664h3.241c.33 0 .433.175.317.41l-.987 2.002zm7.66-1.97c-.1-.07-1.475-1.081-1.559-1.142-.39-.285-.886-.43-1.407-.43h-2.178c-.48 0-.755.058-1.106.237-.115.06-1.353.69-2.268 1.16-.768.396-1.253.907-1.588 1.586-.917 1.858-1.896 3.861-1.896 3.861h1.977c.488 0 .828-.197 1.01-.564l.977-1.973h4.53l-.87 1.764c-.199.404.017.773.547.773h1.777s2.092-4.242 2.202-4.46c.19-.377.167-.59-.149-.811m14.059-.033c-.207.419-.378.783-.638 1.31-.189.383-.532.55-1.346.55h-3.455l.843-1.702c.195-.395.487-.568.998-.568h3.281c.33 0 .433.174.317.41m2.144.034c-.1-.07-1.376-1.019-1.46-1.08a2.63 2.63 0 0 0-1.537-.493H58.68c-.48 0-.755.057-1.105.236-.116.06-1.249.635-2.165 1.107-.906.466-1.337.912-1.72 1.688-.917 1.857-1.87 3.812-1.87 3.812h1.978c.489 0 .83-.196 1.01-.564.08-.161.604-1.204 1.053-2.114h1.151c.549 0 .738.165.959.527.416.685.887 1.456.967 1.586.26.428.49.565 1.075.565h2.258s-.586-.92-1.257-2.024c-.105-.173-.226-.294-.561-.348l-.967-.155.021-.15h1.829c1.235 0 1.786-.262 2.054-.768.126-.239.454-.948.488-1.016.191-.376.168-.589-.148-.81"/></svg>